<svg xmlns="http://www.w3.org/2000/svg" xmlns:xlink="http://www.w3.org/1999/xlink" width="25" height="26" version="1.1" style=""><rect id="backgroundrect" width="100%" height="100%" x="0" y="0" fill="none" stroke="none"/>
    <!-- Generator: Sketch 54 (76480) - https://sketchapp.com -->
    <title>descargar</title>
    <desc>Created with Sketch.</desc>
    
<g class="currentLayer" style=""><title>Layer 1</title><g id="Page-1" stroke="#919191" stroke-width="1" fill="#919191" fill-rule="evenodd" class="selected" fill-opacity="1" stroke-opacity="1">
        <g id="declaraciones-previas" fill="#919191" fill-rule="nonzero" fill-opacity="1" stroke="#919191" stroke-opacity="1">
            <g id="Group" fill="#919191" fill-opacity="1" stroke="#919191" stroke-opacity="1">
                <g id="descargar" fill="#919191" fill-opacity="1" stroke="#919191" stroke-opacity="1">
                    <path d="M12.499340500000017,0.5 C5.5961031199999525,0.5 0,6.096103120000009 0,12.999340500000017 C0,19.902577899999983 5.5961031199999525,25.4986811 12.499340500000017,25.4986811 C19.402577899999983,25.4986811 24.998740999999995,19.902517999999986 24.998740999999995,12.999340500000017 C24.998740999999995,6.096103120000009 19.402577899999983,0.5 12.499340500000017,0.5 zM17.370383700000048,12.342086300000005 L13.278057600000011,19.4290168 C13.117386099999976,19.707254200000023 12.820563500000048,19.87859709999998 12.49928060000002,19.87859709999998 C12.177997600000026,19.87859709999998 11.88117509999995,19.707254200000023 11.720503600000029,19.4290168 L7.628237409999997,12.342086300000005 C7.467565949999994,12.063848899999982 7.467565949999994,11.721043199999997 7.628177459999961,11.442805799999974 C7.788848919999964,11.164508399999988 8.085671459999958,10.993105500000013 8.407014389999972,10.993105500000013 L10.400959199999988,10.993105500000013 L10.400959199999988,7.019364510000003 C10.400959199999988,6.522721820000015 10.803597100000047,6.120083930000021 11.300239799999986,6.120083930000021 L13.698321299999975,6.120083930000021 C14.19502399999999,6.120083930000021 14.597601899999972,6.522721820000015 14.597601899999972,7.019364510000003 L14.597601899999972,10.993105500000013 L16.591606700000057,10.993105500000013 C16.91288970000005,10.993105500000013 17.209772199999975,11.164508399999988 17.370383700000048,11.442805799999974 C17.53105519999997,11.721043199999997 17.53105519999997,12.063848899999982 17.370383700000048,12.342086300000005 z" id="Shape" fill="#919191" fill-opacity="1" stroke="#919191" stroke-opacity="1"/>
                </g>
            </g>
        </g>
    </g></g></svg>